#Comment line ignore any data following # character 
#Hierarchical Translation and Rotation (.htr) file 
[Header]	
#Header keywords are followed by a single value 
FileType HTR		#Single word string
DataType HTRS		#Translation followed by rotation and scale data
FileVersion 1		#integer
NumSegments 84		#integer
NumFrames 2		#integer
DataFrameRate 30		#integer, data frame rate in this file
EulerRotationOrder ZYX
CalibrationUnits mm
RotationUnits Degrees
GlobalAxisofGravity Y
BoneLengthAxis Y
ScaleFactor 1.00
[SegmentNames&Hierarchy]
#CHILD	PARENT
MASTER GLOBAL
root MASTER
chest root
L_mid_tent01 root
R_mid_tent01 root
spine01 root
Bip01_Neck chest
L_humerus chest
R_humerus chest
weapon_bone chest
Bip01_Head Bip01_Neck
eye_left_bone Bip01_Head
eye_right_bone Bip01_Head
L_forearm L_humerus
L_front_hand L_forearm
L_weapon_bone L_forearm
L_front_hand01_01 L_front_hand
L_front_hand02_01 L_front_hand
L_front_hand03_01 L_front_hand
L_front_hand01_02 L_front_hand01_01
L_front_hand02_02 L_front_hand02_01
L_front_hand03_02 L_front_hand03_01
R_forearm R_humerus
R_front_hand R_forearm
R_weapon_bone R_forearm
R_front_hand01_01 R_front_hand
R_front_hand02_01 R_front_hand
R_front_hand03_01 R_front_hand
R_front_hand01_02 R_front_hand01_01
R_front_hand02_02 R_front_hand02_01
R_front_hand03_02 R_front_hand03_01
null_rope01_connect L_mid_tent01
Rope1_Seg01 null_rope01_connect
Rope1_Seg02 Rope1_Seg01
Rope1_Seg03 Rope1_Seg02
Rope1_Seg04 Rope1_Seg03
Rope1_Seg05 Rope1_Seg04
Rope1_Seg06 Rope1_Seg05
Rope1_Seg07 Rope1_Seg06
Rope1_Seg09 Rope1_Seg07
L_mid_hand01 Rope1_Seg09
L_mid_hand02 Rope1_Seg09
L_mid_hand03 Rope1_Seg09
null_rope02_connect R_mid_tent01
Rope2_Seg01 null_rope02_connect
Rope2_Seg02 Rope2_Seg01
Rope2_Seg03 Rope2_Seg02
Rope2_Seg04 Rope2_Seg03
Rope2_Seg05 Rope2_Seg04
Rope2_Seg06 Rope2_Seg05
Rope2_Seg07 Rope2_Seg06
Rope2_Seg09 Rope2_Seg07
R_mid_hand01 Rope2_Seg09
R_mid_hand02 Rope2_Seg09
R_mid_hand03 Rope2_Seg09
spine02 spine01
spine03 spine02
pelvis spine03
null_rope03_connect pelvis
null_rope04_connect pelvis
Rope3_Seg01 null_rope03_connect
Rope3_Seg02 Rope3_Seg01
Rope3_Seg03 Rope3_Seg02
Rope3_Seg04 Rope3_Seg03
Rope3_Seg05 Rope3_Seg04
Rope3_Seg06 Rope3_Seg05
Rope3_Seg07 Rope3_Seg06
Rope3_Seg08 Rope3_Seg07
Rope3_Seg09 Rope3_Seg08
R_rear_hand01 Rope3_Seg09
R_rear_hand02 Rope3_Seg09
R_rear_hand03 Rope3_Seg09
Rope4_Seg01 null_rope04_connect
Rope4_Seg02 Rope4_Seg01
Rope4_Seg03 Rope4_Seg02
Rope4_Seg04 Rope4_Seg03
Rope4_Seg05 Rope4_Seg04
Rope4_Seg06 Rope4_Seg05
Rope4_Seg07 Rope4_Seg06
Rope4_Seg08 Rope4_Seg07
Rope4_Seg09 Rope4_Seg08
L_rear_hand01 Rope4_Seg09
L_rear_hand02 Rope4_Seg09
L_rear_hand03 Rope4_Seg09
[BasePosition]
#SegmentName Tx, Ty, Tz, Rx, Ry, Rz, BoneLength
MASTER 0.000000 0.000000 0.000000 -90.000000 0.000000 0.000000 10.000000 
root 0.000000 0.000000 0.000000 0.000000 0.000000 0.000000 10.000000 
chest 0.000000 0.000000 0.000000 0.000000 0.000000 0.000000 10.000000 
L_mid_tent01 0.000000 0.000000 0.000000 0.000000 0.000000 0.000000 10.000000 
R_mid_tent01 0.000000 0.000000 0.000000 0.000000 0.000000 0.000000 10.000000 
spine01 0.000000 0.000000 0.000000 0.000000 0.000000 0.000000 10.000000 
Bip01_Neck 0.000000 0.000000 0.000000 0.000000 0.000000 0.000000 10.000000 
L_humerus 0.000000 0.000000 0.000000 0.000000 0.000000 0.000000 10.000000 
R_humerus 0.000000 0.000000 0.000000 0.000000 0.000000 0.000000 10.000000 
weapon_bone 0.000000 0.000000 0.000000 0.000000 0.000000 0.000000 10.000000 
Bip01_Head 0.000000 0.000000 0.000000 0.000000 0.000000 0.000000 10.000000 
eye_left_bone 0.000000 0.000000 0.000000 0.000000 0.000000 0.000000 10.000000 
eye_right_bone 0.000000 0.000000 0.000000 0.000000 0.000000 0.000000 10.000000 
L_forearm 0.000000 0.000000 0.000000 0.000000 0.000000 0.000000 10.000000 
L_front_hand 0.000000 0.000000 0.000000 0.000000 0.000000 0.000000 10.000000 
L_weapon_bone 0.000000 0.000000 0.000000 0.000000 0.000000 0.000000 10.000000 
L_front_hand01_01 0.000000 0.000000 0.000000 0.000000 0.000000 0.000000 10.000000 
L_front_hand02_01 0.000000 0.000000 0.000000 0.000000 0.000000 0.000000 10.000000 
L_front_hand03_01 0.000000 0.000000 0.000000 0.000000 0.000000 0.000000 10.000000 
L_front_hand01_02 0.000000 0.000000 0.000000 0.000000 0.000000 0.000000 10.000000 
L_front_hand02_02 0.000000 0.000000 0.000000 0.000000 0.000000 0.000000 10.000000 
L_front_hand03_02 0.000000 0.000000 0.000000 0.000000 0.000000 0.000000 10.000000 
R_forearm 0.000000 0.000000 0.000000 0.000000 0.000000 0.000000 10.000000 
R_front_hand 0.000000 0.000000 0.000000 0.000000 0.000000 0.000000 10.000000 
R_weapon_bone 0.000000 0.000000 0.000000 0.000000 0.000000 0.000000 10.000000 
R_front_hand01_01 0.000000 0.000000 0.000000 0.000000 0.000000 0.000000 10.000000 
R_front_hand02_01 0.000000 0.000000 0.000000 0.000000 0.000000 0.000000 10.000000 
R_front_hand03_01 0.000000 0.000000 0.000000 0.000000 0.000000 0.000000 10.000000 
R_front_hand01_02 0.000000 0.000000 0.000000 0.000000 0.000000 0.000000 10.000000 
R_front_hand02_02 0.000000 0.000000 0.000000 0.000000 0.000000 0.000000 10.000000 
R_front_hand03_02 0.000000 0.000000 0.000000 0.000000 0.000000 0.000000 10.000000 
null_rope01_connect 0.000000 0.000000 0.000000 0.000000 0.000000 0.000000 10.000000 
Rope1_Seg01 0.000000 0.000000 0.000000 0.000000 0.000000 0.000000 10.000000 
Rope1_Seg02 0.000000 0.000000 0.000000 0.000000 0.000000 0.000000 10.000000 
Rope1_Seg03 0.000000 0.000000 0.000000 0.000000 0.000000 0.000000 10.000000 
Rope1_Seg04 0.000000 0.000000 0.000000 0.000000 0.000000 0.000000 10.000000 
Rope1_Seg05 0.000000 0.000000 0.000000 0.000000 0.000000 0.000000 10.000000 
Rope1_Seg06 0.000000 0.000000 0.000000 0.000000 0.000000 0.000000 10.000000 
Rope1_Seg07 0.000000 0.000000 0.000000 0.000000 0.000000 0.000000 10.000000 
Rope1_Seg09 0.000000 0.000000 0.000000 0.000000 0.000000 0.000000 10.000000 
L_mid_hand01 0.000000 0.000000 0.000000 0.000000 0.000000 0.000000 10.000000 
L_mid_hand02 0.000000 0.000000 0.000000 0.000000 0.000000 0.000000 10.000000 
L_mid_hand03 0.000000 0.000000 0.000000 0.000000 0.000000 0.000000 10.000000 
null_rope02_connect 0.000000 0.000000 0.000000 0.000000 0.000000 0.000000 10.000000 
Rope2_Seg01 0.000000 0.000000 0.000000 0.000000 0.000000 0.000000 10.000000 
Rope2_Seg02 0.000000 0.000000 0.000000 0.000000 0.000000 0.000000 10.000000 
Rope2_Seg03 0.000000 0.000000 0.000000 0.000000 0.000000 0.000000 10.000000 
Rope2_Seg04 0.000000 0.000000 0.000000 0.000000 0.000000 0.000000 10.000000 
Rope2_Seg05 0.000000 0.000000 0.000000 0.000000 0.000000 0.000000 10.000000 
Rope2_Seg06 0.000000 0.000000 0.000000 0.000000 0.000000 0.000000 10.000000 
Rope2_Seg07 0.000000 0.000000 0.000000 0.000000 0.000000 0.000000 10.000000 
Rope2_Seg09 0.000000 0.000000 0.000000 0.000000 0.000000 0.000000 10.000000 
R_mid_hand01 0.000000 0.000000 0.000000 0.000000 0.000000 0.000000 10.000000 
R_mid_hand02 0.000000 0.000000 0.000000 0.000000 0.000000 0.000000 10.000000 
R_mid_hand03 0.000000 0.000000 0.000000 0.000000 0.000000 0.000000 10.000000 
spine02 0.000000 0.000000 0.000000 0.000000 0.000000 0.000000 10.000000 
spine03 0.000000 0.000000 0.000000 0.000000 0.000000 0.000000 10.000000 
pelvis 0.000000 0.000000 0.000000 0.000000 0.000000 0.000000 10.000000 
null_rope03_connect 0.000000 0.000000 0.000000 0.000000 0.000000 0.000000 10.000000 
null_rope04_connect 0.000000 0.000000 0.000000 0.000000 0.000000 0.000000 10.000000 
Rope3_Seg01 0.000000 0.000000 0.000000 0.000000 0.000000 0.000000 10.000000 
Rope3_Seg02 0.000000 0.000000 0.000000 0.000000 0.000000 0.000000 10.000000 
Rope3_Seg03 0.000000 0.000000 0.000000 0.000000 0.000000 0.000000 10.000000 
Rope3_Seg04 0.000000 0.000000 0.000000 0.000000 0.000000 0.000000 10.000000 
Rope3_Seg05 0.000000 0.000000 0.000000 0.000000 0.000000 0.000000 10.000000 
Rope3_Seg06 0.000000 0.000000 0.000000 0.000000 0.000000 0.000000 10.000000 
Rope3_Seg07 0.000000 0.000000 0.000000 0.000000 0.000000 0.000000 10.000000 
Rope3_Seg08 0.000000 0.000000 0.000000 0.000000 0.000000 0.000000 10.000000 
Rope3_Seg09 0.000000 0.000000 0.000000 0.000000 0.000000 0.000000 10.000000 
R_rear_hand01 0.000000 0.000000 0.000000 0.000000 0.000000 0.000000 10.000000 
R_rear_hand02 0.000000 0.000000 0.000000 0.000000 0.000000 0.000000 10.000000 
R_rear_hand03 0.000000 0.000000 0.000000 0.000000 0.000000 0.000000 10.000000 
Rope4_Seg01 0.000000 0.000000 0.000000 0.000000 0.000000 0.000000 10.000000 
Rope4_Seg02 0.000000 0.000000 0.000000 0.000000 0.000000 0.000000 10.000000 
Rope4_Seg03 0.000000 0.000000 0.000000 0.000000 0.000000 0.000000 10.000000 
Rope4_Seg04 0.000000 0.000000 0.000000 0.000000 0.000000 0.000000 10.000000 
Rope4_Seg05 0.000000 0.000000 0.000000 0.000000 0.000000 0.000000 10.000000 
Rope4_Seg06 0.000000 0.000000 0.000000 0.000000 0.000000 0.000000 10.000000 
Rope4_Seg07 0.000000 0.000000 0.000000 0.000000 0.000000 0.000000 10.000000 
Rope4_Seg08 0.000000 0.000000 0.000000 0.000000 0.000000 0.000000 10.000000 
Rope4_Seg09 0.000000 0.000000 0.000000 0.000000 0.000000 0.000000 10.000000 
L_rear_hand01 0.000000 0.000000 0.000000 0.000000 0.000000 0.000000 10.000000 
L_rear_hand02 0.000000 0.000000 0.000000 0.000000 0.000000 0.000000 10.000000 
L_rear_hand03 0.000000 0.000000 0.000000 0.000000 0.000000 0.000000 10.000000 
#Beginning of Data. Separated by tabs
#Fr	Tx	Ty	Tz	Rx	Ry	Rz	SF
[MASTER]
12 0.000000 0.000000 0.000000 0.001660 0.001660 0.001660 0.000000
13 0.000000 0.000000 0.000000 0.001660 0.001660 0.001660 0.000000
[root]
12 4.425927 -62.822109 1383.060913 -90.047836 -7.572695 -89.831276 1384.494019
13 2.043921 -62.822109 1377.682373 -90.166573 -7.577084 -89.828758 1379.115479
[chest]
12 -84.512650 -34.090519 0.000000 -0.307809 -0.743092 156.385437 91.129311
13 -84.512650 -34.090519 0.000000 -0.307809 -0.743092 156.385437 91.129311
[L_mid_tent01]
12 23.228750 24.509907 -223.761200 -15.386934 21.889561 -18.353844 226.294907
13 23.228750 24.509907 -223.761200 -14.003469 23.366692 -15.062277 226.294907
[R_mid_tent01]
12 23.228794 24.509907 226.238495 -159.698151 -5.594944 -22.284742 228.744751
13 23.228794 24.509907 226.238495 -159.906189 -4.246606 -21.363230 228.744751
[spine01]
12 -0.361383 -0.195265 0.000000 0.001815 0.001488 11.320962 0.410763
13 -0.361383 -0.195265 0.000000 0.001815 0.001488 11.320960 0.410763
[Bip01_Neck]
12 165.484543 71.581718 0.000119 175.896118 1.177290 24.871183 180.302734
13 165.484543 71.581718 0.000119 175.896118 1.177290 24.871183 180.302734
[L_humerus]
12 -13.983130 -135.272980 -120.471481 149.628754 9.923236 -156.213867 181.680161
13 -13.983130 -135.272980 -120.471481 149.628754 9.923232 -156.213852 181.680161
[R_humerus]
12 -13.983309 -135.273102 125.287651 -156.699188 -11.743878 -154.898071 184.909012
13 -13.983309 -135.273102 125.287651 -156.699188 -11.743879 -154.898071 184.909012
[weapon_bone]
12 235.964890 -300.705902 0.000000 0.000000 -89.951546 -128.212341 382.234833
13 235.964890 -300.705902 0.000000 0.000000 -89.951546 -128.212341 382.234833
[Bip01_Head]
12 179.663712 77.989014 -1.800932 2.087838 0.930625 -41.262920 195.868790
13 179.663712 77.989014 -1.800932 2.022346 0.388859 -41.308399 195.868790
[eye_left_bone]
12 -24.626970 125.451866 -64.772606 0.000000 -90.000000 -99.840431 143.318359
13 -24.626970 125.451866 -64.772606 0.000000 -90.000000 -99.840431 143.318359
[eye_right_bone]
12 -24.626970 125.451866 64.327362 0.000000 -89.965736 80.156380 143.117676
13 -24.626970 125.451866 64.327362 0.000000 -89.965736 80.156380 143.117676
[L_forearm]
12 322.776093 0.000000 -0.000119 0.000842 -0.002191 -132.067245 322.776093
13 322.776093 0.000000 -0.000119 0.000842 -0.002191 -132.067245 322.776093
[L_front_hand]
12 241.149185 -0.042021 -3.300071 69.286049 -1.502413 -39.928860 241.171753
13 241.149185 -0.042021 -3.300071 67.705887 -1.501159 -39.930275 241.171753
[L_weapon_bone]
12 156.183838 0.000000 0.000000 0.000014 0.000007 0.000001 156.183838
13 156.183838 0.000000 0.000000 0.000014 0.000007 0.000001 156.183838
[L_front_hand01_01]
12 86.095154 20.947098 -0.655860 -0.023101 -0.600663 40.183533 88.609184
13 86.095154 20.947098 -0.655860 0.007911 -0.601112 37.252930 88.609184
[L_front_hand02_01]
12 86.935165 -11.437475 24.513514 123.803017 -35.583660 -21.633909 91.046425
13 86.935165 -11.437475 24.513514 122.705910 -33.134087 -19.687557 91.046425
[L_front_hand03_01]
12 86.637497 -14.123976 -20.424902 -124.931145 34.056267 -24.031849 90.126129
13 86.637497 -14.123976 -20.424902 -123.863708 31.639315 -22.060841 90.126129
[L_front_hand01_02]
12 71.020905 -0.000179 0.000030 0.000334 -0.002323 -106.379684 71.020905
13 71.020905 -0.000179 0.000030 0.000334 -0.002323 -106.379700 71.020905
[L_front_hand02_02]
12 71.020927 -0.000119 0.000060 0.000334 -0.002323 -106.379684 71.020927
13 71.020927 -0.000119 0.000060 0.000334 -0.002323 -106.379700 71.020927
[L_front_hand03_02]
12 71.020905 -0.000060 0.000060 0.000334 -0.002323 -106.379684 71.020905
13 71.020905 -0.000060 0.000060 0.000334 -0.002323 -106.379700 71.020905
[R_forearm]
12 322.776428 -0.000060 0.000030 0.244684 0.084396 -126.001297 322.776428
13 322.776428 -0.000060 0.000030 0.244684 0.084396 -126.001297 322.776428
[R_front_hand]
12 238.847015 -0.006795 2.210259 38.578636 0.234903 -48.449673 238.857239
13 238.847015 -0.006795 2.210259 39.273682 0.237170 -48.448666 238.857239
[R_weapon_bone]
12 155.664093 0.002503 -0.000030 0.003487 0.001180 -90.988930 155.664078
13 155.664093 0.002503 -0.000030 0.003487 0.001180 -90.988930 155.664078
[R_front_hand01_01]
12 87.624611 14.231146 22.918642 -154.633499 -59.950619 61.746044 91.683487
13 87.624611 14.231146 22.918642 -150.754990 -58.762558 57.237114 91.683487
[R_front_hand02_01]
12 89.356956 14.367283 -19.491137 154.602661 58.302849 63.744389 92.579636
13 89.356956 14.367283 -19.491137 150.964142 57.123432 59.446499 92.579636
[R_front_hand03_01]
12 87.286232 -22.307278 -0.143439 0.162155 -0.423168 -75.767921 90.091743
13 87.286232 -22.307278 -0.143439 0.144625 -0.432617 -73.183548 90.091743
[R_front_hand01_02]
12 71.020905 0.000060 0.000119 0.002166 0.000905 44.639202 71.020905
13 71.020905 0.000060 0.000119 0.002213 0.000782 51.062431 71.020905
[R_front_hand02_02]
12 71.020844 -0.000030 -0.000119 0.002166 0.000905 44.639202 71.020836
13 71.020844 -0.000030 -0.000119 0.002213 0.000782 51.062431 71.020836
[R_front_hand03_02]
12 71.020905 0.000000 0.000030 0.002166 0.000905 44.639202 71.020905
13 71.020905 0.000000 0.000030 0.002213 0.000782 51.062431 71.020905
[null_rope01_connect]
12 328.732483 0.000000 -0.000238 -100.647240 -63.614048 -146.399368 328.732483
13 328.732483 0.000000 -0.000238 -99.881569 -63.080391 -150.345322 328.732483
[Rope1_Seg01]
12 0.000000 0.000000 0.000000 86.914558 -26.080635 -157.408295 0.000000
13 0.000000 0.000000 0.000000 85.974884 -28.059275 -157.026764 0.000000
[Rope1_Seg02]
12 139.999863 -0.000179 0.000000 -2.765190 5.170018 1.892434 139.999863
13 139.999863 -0.000179 0.000000 -2.399253 4.821702 1.653412 139.999863
[Rope1_Seg03]
12 139.999924 0.000060 -0.000060 -4.745644 7.922291 3.374985 139.999924
13 139.999924 0.000060 -0.000060 -3.849325 6.913052 2.719105 139.999924
[Rope1_Seg04]
12 139.999924 -0.000060 -0.000119 -8.792427 12.712759 7.642543 139.999924
13 139.999924 -0.000060 -0.000119 -6.410957 9.970572 5.147321 139.999924
[Rope1_Seg05]
12 139.999832 0.000119 -0.000060 -12.092367 17.383410 24.553036 139.999832
13 139.999832 0.000119 -0.000060 -8.456561 10.197884 12.910002 139.999832
[Rope1_Seg06]
12 139.999954 0.000119 -0.000060 -8.964054 19.896332 10.246895 139.999954
13 139.999954 0.000119 -0.000060 -12.534583 22.301939 13.241983 139.999954
[Rope1_Seg07]
12 139.999985 0.000060 0.000000 -6.298839 14.223799 -4.069823 139.999985
13 139.999985 0.000060 0.000000 -10.943215 17.170656 6.999332 139.999985
[Rope1_Seg09]
12 121.602913 0.000119 -0.000089 -89.793175 -1.359789 0.847147 121.602913
13 121.602913 0.000119 -0.000089 -89.793175 -1.359789 0.847147 121.602913
[L_mid_hand01]
12 103.859421 1.038730 8.195221 106.855484 -31.239275 -9.461397 104.187431
13 103.859421 1.038730 8.195221 106.855484 -31.239275 -9.461397 104.187431
[L_mid_hand02]
12 105.572853 -4.139662 -10.864139 -142.331345 25.752670 -28.774628 106.211075
13 105.572853 -4.139662 -10.864139 -142.331345 25.752670 -28.774628 106.211075
[L_mid_hand03]
12 104.641464 17.579376 -3.913581 -16.122810 9.734291 34.223598 106.179977
13 104.641464 17.579376 -3.913581 -16.122810 9.734291 34.223598 106.179977
[null_rope02_connect]
12 328.732849 0.000179 -0.000119 -134.987045 68.891151 -73.818954 328.732849
13 328.732849 0.000179 -0.000119 -139.036911 69.505585 -77.187065 328.732849
[Rope2_Seg01]
12 0.000146 0.000083 -0.000125 105.233452 -36.748478 -143.949921 0.000209
13 0.000145 0.000084 -0.000122 106.989273 -41.377819 -144.031494 0.000207
[Rope2_Seg02]
12 139.999741 -0.000060 -0.000119 -0.027673 10.207035 -3.442324 139.999756
13 139.999741 -0.000060 -0.000119 -0.463149 7.785450 -4.204708 139.999756
[Rope2_Seg03]
12 140.000107 0.000030 0.000000 -0.914477 17.324699 -6.073742 140.000107
13 140.000107 0.000030 0.000000 -0.874675 12.973333 -7.040929 140.000107
[Rope2_Seg04]
12 139.999802 0.000000 -0.000060 -4.113663 29.716299 -14.086445 139.999802
13 139.999802 0.000000 -0.000060 -1.508891 21.535166 -16.231363 139.999802
[Rope2_Seg05]
12 139.999985 -0.000060 0.000119 -5.058597 21.161253 -7.721143 139.999985
13 139.999985 -0.000060 0.000119 2.376249 22.174307 -16.144663 139.999985
[Rope2_Seg06]
12 139.999893 -0.000030 -0.000119 -10.156221 -0.029821 6.074604 139.999893
13 139.999893 -0.000030 -0.000119 -16.764536 10.148284 6.171203 139.999893
[Rope2_Seg07]
12 139.999893 0.000060 -0.000060 -5.448700 -6.047247 6.778445 139.999893
13 139.999893 0.000060 -0.000060 -15.973999 1.529242 10.536185 139.999893
[Rope2_Seg09]
12 121.338966 0.000089 -0.000060 33.793236 -1.359788 -0.847141 121.338966
13 121.338966 0.000089 -0.000060 33.793236 -1.359788 -0.847141 121.338966
[R_mid_hand01]
12 104.680779 11.144459 -10.335981 -41.523792 25.424656 28.595957 105.778534
13 104.680779 11.144459 -10.335981 -41.523792 25.424656 28.595957 105.778534
[R_mid_hand02]
12 104.070427 2.443552 8.231699 72.847389 -32.746803 10.013901 104.424065
13 104.070427 2.443552 8.231699 72.847389 -32.746803 10.013901 104.424065
[R_mid_hand03]
12 106.028137 -11.221827 -5.996406 -167.901306 10.259192 -37.009720 106.788818
13 106.028137 -11.221827 -5.996406 -167.901306 10.259192 -37.009720 106.788818
[spine02]
12 129.756927 0.001550 0.000119 0.001147 -1.797837 -7.854275 129.756927
13 129.756927 0.001550 0.000119 0.001147 -1.797837 -7.854274 129.756927
[spine03]
12 79.115631 0.000000 -0.000119 1.459971 -2.848092 23.765963 79.115631
13 79.115631 0.000000 -0.000119 1.459971 -2.848092 23.765961 79.115631
[pelvis]
12 169.435242 0.051022 0.000000 -0.000005 0.000003 -4.322055 169.435257
13 169.435242 0.051022 0.000000 -0.000005 0.000003 -4.322055 169.435257
[null_rope03_connect]
12 -1.257226 -2.466202 137.391083 62.726059 -85.218605 11.857695 137.418976
13 -1.257226 -2.466202 137.391083 63.868896 -85.285324 10.712707 137.418976
[null_rope04_connect]
12 -1.259640 -2.480268 -137.844437 62.726059 -85.218605 11.857695 137.872513
13 -1.259640 -2.480268 -137.844437 63.868896 -85.285324 10.712707 137.872513
[Rope3_Seg01]
12 0.000000 0.000000 0.000000 -127.798820 -14.321044 -90.511032 0.000000
13 0.000000 0.000000 0.000000 -122.716301 -17.266459 -103.056908 0.000000
[Rope3_Seg02]
12 139.999924 -0.000119 0.000060 -0.496877 -5.225632 0.509523 139.999924
13 139.999924 -0.000119 0.000060 -1.460719 -6.693411 -0.324143 139.999924
[Rope3_Seg03]
12 139.999924 -0.000119 0.000119 -0.351248 -6.315569 0.560944 139.999924
13 139.999924 -0.000119 0.000119 -1.254813 -8.594778 -0.638116 139.999924
[Rope3_Seg04]
12 139.999924 0.000119 0.000000 -0.019012 -9.405682 0.251352 139.999924
13 139.999924 0.000119 0.000000 -0.637198 -12.201710 -1.422448 139.999924
[Rope3_Seg05]
12 139.999924 -0.000238 0.000060 1.727165 -15.069054 -0.635915 139.999924
13 139.999924 -0.000238 0.000060 2.116173 -18.953779 -3.230489 139.999924
[Rope3_Seg06]
12 139.999893 -0.000119 -0.000060 0.761896 -0.776294 2.425120 139.999893
13 139.999893 -0.000119 -0.000060 1.523124 -5.343831 0.500005 139.999893
[Rope3_Seg07]
12 139.999771 0.000060 -0.000119 0.903238 16.719313 5.925662 139.999771
13 139.999771 0.000060 -0.000119 -0.245176 10.611380 4.137170 139.999771
[Rope3_Seg08]
12 139.999985 -0.000060 0.000000 2.098063 11.070977 4.440160 139.999985
13 139.999985 -0.000060 0.000000 0.655593 8.078478 3.499306 139.999985
[Rope3_Seg09]
12 90.185997 -0.000179 -0.000060 89.793228 -1.359877 -0.847183 90.185997
13 90.185997 -0.000179 -0.000060 89.793228 -1.359877 -0.847183 90.185997
[R_rear_hand01]
12 103.366196 -6.073594 -10.757982 -161.551193 16.666374 -30.088671 104.101845
13 103.366196 -6.073594 -10.757982 -161.551193 16.666374 -30.088671 104.101845
[R_rear_hand02]
12 100.509819 12.039542 -7.992327 -34.280552 19.289745 28.875523 101.543350
13 100.509819 12.039542 -7.992327 -34.280552 19.289745 28.875523 101.543350
[R_rear_hand03]
12 101.539970 5.215704 5.435467 83.366440 -30.933914 7.284830 101.819031
13 101.539970 5.215704 5.435467 83.366440 -30.933914 7.284830 101.819031
[Rope4_Seg01]
12 0.000000 0.000000 0.000000 60.474747 -37.481300 -120.621330 0.000000
13 0.000000 0.000000 0.000000 68.305687 -33.990833 -137.133957 0.000000
[Rope4_Seg02]
12 139.999985 0.000060 0.000119 -3.837084 22.250238 -3.133660 139.999985
13 139.999985 0.000060 0.000119 -4.043252 19.429609 0.704989 139.999985
[Rope4_Seg03]
12 139.999924 0.000000 -0.000238 0.574478 21.304626 -1.289320 139.999924
13 139.999924 0.000000 -0.000238 -0.649324 23.223827 2.680895 139.999924
[Rope4_Seg04]
12 139.999985 0.000000 0.000119 3.946863 20.123898 0.687219 139.999985
13 139.999985 0.000000 0.000119 3.216086 25.116125 5.453900 139.999985
[Rope4_Seg05]
12 139.999802 -0.000060 -0.000119 2.330178 4.787735 -1.500147 139.999802
13 139.999802 -0.000060 -0.000119 2.547169 10.147088 1.096967 139.999802
[Rope4_Seg06]
12 139.999924 0.000000 0.000060 0.623639 -4.460580 -3.002563 139.999924
13 139.999924 0.000000 0.000060 1.473467 0.127083 -2.059337 139.999924
[Rope4_Seg07]
12 139.999802 0.000000 0.000000 0.291414 -15.276763 -5.918183 139.999802
13 139.999802 0.000000 0.000000 1.165690 -8.813420 -5.690923 139.999802
[Rope4_Seg08]
12 139.999924 0.000000 0.000119 -1.062804 -9.707032 -4.778933 139.999924
13 139.999924 0.000000 0.000119 -0.580085 -8.164310 -5.616687 139.999924
[Rope4_Seg09]
12 90.185791 0.000060 0.000060 -135.617828 2.228885 0.850567 90.185791
13 90.185791 0.000060 0.000060 -135.617828 2.228885 0.850567 90.185791
[L_rear_hand01]
12 101.696655 -8.392275 -7.654577 -34.454281 -18.946800 151.655121 102.329041
13 101.696655 -8.392275 -7.654577 -34.454281 -18.946800 151.655121 102.329041
[L_rear_hand02]
12 102.726799 -1.568258 5.773216 83.407906 30.330435 172.796509 102.900848
13 102.726799 -1.568258 5.773216 83.407906 30.330435 172.796509 102.900848
[L_rear_hand03]
12 104.552910 9.721220 -10.420293 -161.379868 -16.473232 -150.512238 105.519653
13 104.552910 9.721220 -10.420293 -161.379868 -16.473232 -150.512238 105.519653
